<svg width="158" height="18" viewBox="0 0 158 18" fill="none" xmlns="http://www.w3.org/2000/svg">
<path d="M39.385 8.80445L39.2623 8.92675C38.4031 9.84398 37.4211 10.272 36.5006 10.272L38.219 7.27572C39.3236 5.38009 38.2803 3.54562 36.5619 3.54562C35.1504 3.54562 34.0457 4.09596 33.0024 5.93044L32.0819 7.52032L31.3454 8.80445L31.2227 8.92675C29.8725 10.4555 28.5837 11.6785 27.7859 11.6785C27.3563 11.6785 27.1722 11.3727 27.6018 10.7001L31.5295 3.85136H33.0024L33.5548 2.99527H32.0205L33.7389 -0.0010376H31.8977L30.1793 2.99527H28.5223L27.97 3.85136H29.627L25.9447 10.2109C25.1469 11.5562 25.6993 12.8403 27.1722 12.8403C28.2155 12.8403 29.4429 12.0454 30.5476 10.9447C30.5476 13.2683 33.8002 13.7575 35.7641 11.2504H36.1937C37.2984 11.2504 39.0168 10.5778 39.9374 9.47709C39.9374 9.17134 39.6305 8.92675 39.385 8.80445ZM35.4573 8.92675H35.3959C34.7822 8.92675 34.2912 9.41594 34.2912 10.0274C34.2912 10.272 34.3526 10.4555 34.4753 10.6389V10.7001C33.6161 12.1677 31.5295 11.9231 32.5728 9.96629L33.9844 7.58147L34.8436 6.11388C36.1323 3.91251 37.9121 4.7686 36.8074 6.66423L35.4573 8.92675Z" fill="#766458"/>
<path d="M64.854 8.80421L64.7312 8.9265C63.3811 10.4552 61.7241 11.6782 60.4353 11.6782C59.3306 11.6782 58.6555 10.9444 59.4533 9.47685L59.6374 9.1711C60.8035 9.66029 63.0742 9.4157 64.4244 7.03088L64.6699 6.60284C65.6518 4.89066 64.7312 3.66767 63.197 3.66767C61.7241 3.66767 60.558 4.46261 59.7602 5.80789L57.9804 8.86535L57.8577 8.98766C56.5075 10.5164 55.2187 11.7394 54.4209 11.7394C53.9913 11.7394 53.8072 11.4336 54.2368 10.761L56.8757 6.11364C57.6736 4.70721 56.9371 3.72882 55.8938 3.72882C55.096 3.72882 54.2368 4.15687 53.3162 5.13525L56.262 0.0598689H54.4209L49.3271 8.80421L49.2044 8.9265C47.8542 10.4552 46.5654 11.6782 45.7676 11.6782C45.338 11.6782 45.1539 11.3725 45.5835 10.6998L49.5112 3.85112H50.9841L51.5365 2.99503H50.0022L51.7206 -0.00128174H49.8794L48.1611 2.99503H46.504L45.9517 3.85112H47.6087L43.9265 10.2106C43.1286 11.5559 43.681 12.8401 45.1539 12.8401C45.8903 12.8401 46.6882 12.4732 47.486 11.8617L46.995 12.6566H48.8361L51.5978 7.82582C54.4209 4.27917 55.6483 4.76836 54.9119 6.11364L52.5184 10.2718C51.7206 11.6171 52.2729 12.9012 53.7458 12.9012C54.8505 12.9012 56.0779 12.0451 57.1826 10.9444C57.244 12.1063 58.2259 12.9012 59.6988 12.9012C61.7854 12.9012 63.872 11.3113 65.3449 9.538C65.4063 9.1711 65.0995 8.92651 64.854 8.80421ZM61.3558 6.23594C62.3991 4.40146 64.3016 4.70721 63.197 6.60284L62.9515 7.03088C62.0923 8.49846 60.8649 8.49846 60.1898 8.25386L61.3558 6.23594Z" fill="#766458"/>
<path d="M131.81 8.80442L131.687 8.92672C131.012 9.72166 130.214 10.3943 129.478 10.9446C130.091 9.17132 129.907 6.5419 131.073 4.15708L129.723 3.42329C128.987 4.46283 127.33 6.84765 125.611 8.80442L125.488 8.92672C124.138 10.4554 122.849 11.6784 122.052 11.6784C121.622 11.6784 121.438 11.3727 121.868 10.7L125.795 3.85134H123.954L120.701 9.53821C119.29 10.8223 118.247 11.495 117.878 11.3727C117.449 11.1892 117.878 10.5166 118.124 10.0886L121.683 3.85134H119.842L116.958 8.80442L116.835 8.92672C115.976 9.84396 114.994 10.272 114.073 10.272L115.792 7.27569C116.896 5.38007 115.853 3.54559 114.135 3.54559C112.723 3.54559 111.619 4.09593 110.575 5.93041L109.655 7.52029L108.918 8.80442L108.796 8.92672C107.445 10.4554 105.788 11.6784 104.5 11.6784C103.395 11.6784 102.72 10.9446 103.518 9.47706L103.702 9.17132C104.868 9.66051 107.138 9.41591 108.489 7.03109L108.734 6.60305C109.716 4.89087 108.796 3.66789 107.261 3.66789C105.788 3.66789 104.622 4.46283 103.824 5.80811L102.045 8.86557L101.922 8.98787C100.388 10.7612 99.0989 11.8619 97.626 12.4734L101.738 5.44122H100.633C100.633 4.70742 99.8353 3.66789 98.7307 3.66789C97.7487 3.66789 96.3372 4.46283 95.6007 5.80811L93.821 8.86557L93.6982 8.98787C92.3481 10.5166 91.0593 11.7396 90.2615 11.7396C89.8319 11.7396 89.6477 11.4338 90.0773 10.7612L91.9185 7.58144C92.5322 6.48075 92.2253 5.80811 91.673 5.07432L90.6297 3.85134C90.3842 3.54559 90.3842 3.11755 90.7524 2.8118L89.7705 1.77226C88.7272 2.6895 88.6658 3.72904 89.2795 4.58513L89.4636 4.76857C88.6658 5.93041 87.5611 7.45914 86.3337 8.86557L86.211 8.98787C85.3518 9.90511 84.3698 10.3332 83.4493 10.3332L85.1677 7.33684C86.2723 5.44121 85.229 3.60674 83.5106 3.60674C82.0991 3.60674 80.9944 4.15708 79.9511 5.99156L79.0306 7.58144L78.2941 8.86557L78.1714 8.98787C76.6371 10.7612 75.3483 11.8619 73.8754 12.4734L77.9872 5.44122H76.8826C76.8826 4.70742 76.0847 3.66789 74.9801 3.66789C73.9981 3.66789 72.5866 4.46283 71.8501 5.80811L69.2726 10.272C68.4747 11.6173 69.0271 12.9014 70.5 12.9014C70.9909 12.9014 71.6047 12.6568 72.2797 12.2899L71.7888 13.146C69.3339 13.8798 67.7383 14.9193 67.7383 16.2646C67.7383 18.038 70.4386 18.4048 71.7888 16.1423L73.2003 13.7575C74.6732 13.3295 76.0847 12.4122 77.619 11.0058C77.619 13.3295 80.8717 13.8187 82.8356 11.3115H83.2652C84.3698 11.3115 86.0882 10.6389 87.0088 9.53821C87.868 8.49867 88.6044 7.58144 90.0773 5.62466L90.3228 5.93041C90.5683 6.23616 90.6297 6.60305 90.4456 6.96995L88.4817 10.3332C87.6839 11.6784 88.2362 12.9626 89.7091 12.9626C90.6297 12.9626 91.673 12.3511 92.6549 11.495C92.6549 12.3511 93.2073 12.9626 94.2506 12.9626C94.7415 12.9626 95.3553 12.718 96.0303 12.3511L95.6007 13.0849C93.1459 13.8187 91.5502 14.8582 91.5502 16.2035C91.5502 17.9768 94.2506 18.3437 95.6007 16.0812L97.0123 13.6964C98.4852 13.2072 99.9581 12.3511 101.492 10.8835C101.554 12.0453 102.474 12.8403 104.009 12.8403C105.481 12.8403 107.016 11.9842 108.243 10.8835C108.182 13.2683 111.496 13.7575 113.46 11.2504H113.889C114.442 11.2504 115.239 11.0669 115.915 10.7C115.424 11.9842 115.853 12.8403 116.896 12.8403C117.878 12.8403 119.044 11.923 119.904 11.0669C119.72 12.0453 120.333 12.8403 121.499 12.8403C123.034 12.8403 124.752 11.2504 126.286 9.47706C127.33 8.25408 128.25 6.96994 128.925 6.11386C128.189 8.00948 128.618 11.4338 126.839 11.4338C126.225 11.4338 125.979 10.7612 125.979 10.7612L124.813 11.3727C124.813 11.3727 125.12 12.8403 126.839 12.8403C127.023 12.8403 127.145 12.8403 127.33 12.7791H127.391C129.293 12.5345 131.135 11.0669 132.485 9.47706C132.423 9.17132 132.117 8.86557 131.81 8.80442ZM105.481 6.23616C106.525 4.40168 108.427 4.70743 107.323 6.60305L107.077 7.03109C106.218 8.49867 104.991 8.49867 104.315 8.25408L105.481 6.23616ZM70.3772 15.7754C70.009 16.4481 69.3953 16.3869 69.3953 15.8366C69.3953 15.3474 69.8249 14.797 71.2364 14.2467L70.3772 15.7754ZM71.2364 11.6784C70.8068 11.6784 70.6227 11.3727 71.0523 10.7L73.6299 6.23616C74.6118 4.52398 76.5757 4.95202 75.6551 6.60305L74.2436 9.04902C73.1389 10.8223 71.9729 11.6784 71.2364 11.6784ZM82.5287 8.92672H82.4673C81.8536 8.92672 81.3627 9.41591 81.3627 10.0274C81.3627 10.272 81.424 10.4555 81.5468 10.6389V10.7C80.6876 12.1676 78.601 11.923 79.6443 9.96626L81.0558 7.58144L81.915 6.11386C83.2038 3.91248 84.9835 4.76857 83.8789 6.6642L82.5287 8.92672ZM94.0665 15.7754C93.6982 16.4481 93.0845 16.3869 93.0845 15.8366C93.0845 15.3474 93.5141 14.797 94.9256 14.2467L94.0665 15.7754ZM94.9256 11.6784C94.4961 11.6784 94.3119 11.3727 94.7415 10.7L97.3191 6.23616C98.3011 4.52398 100.265 4.95202 99.3444 6.60305L97.9328 9.04902C96.8281 10.8223 95.6621 11.6784 94.9256 11.6784ZM113.03 8.92672H112.969C112.355 8.92672 111.864 9.41591 111.864 10.0274C111.864 10.272 111.925 10.4555 112.048 10.6389V10.7C111.189 12.1676 109.102 11.923 110.146 9.96626L111.557 7.58144L112.416 6.11386C113.705 3.91248 115.485 4.76857 114.38 6.6642L113.03 8.92672Z" fill="#766458"/>
<path d="M17.8437 6.84692H0.107422V8.06991H17.8437V6.84692Z" fill="#766458"/>
<path d="M157.156 6.84692H139.42V8.06991H157.156V6.84692Z" fill="#766458"/>
</svg>
