<svg xmlns="http://www.w3.org/2000/svg" width="136" height="16" fill="none" viewBox="0 0 136 16"><path fill="#000" d="M6.127 11.195h-1.87l-.755 3.234H1.255l.756-3.234H.457l.462-2.037h1.575l.525-2.226H1.507l.462-2.037h1.533l.735-3.024h2.226l-.714 3.024h1.869l.735-3.024h2.226l-.714 3.024h1.512l-.525 2.037h-1.47l-.525 2.226h1.449l-.504 2.037H8.374l-.756 3.234H5.37zM4.74 9.158h1.87l.525-2.226h-1.87zm13.322.273.378 2.499h.105l.42-2.52L21.78.8h3.024l-5.46 14.805h-2.058L11.784.8h3.339zM26.16.8h2.877v14.7H26.16zm12.036 10.752q0-.672-.504-1.092-.483-.42-1.24-.756a26 26 0 0 0-1.616-.714 9.6 9.6 0 0 1-1.617-.903 5 5 0 0 1-1.24-1.344q-.482-.798-.482-2.037 0-1.071.357-1.848a3.5 3.5 0 0 1 1.008-1.323q.672-.525 1.575-.777a7.5 7.5 0 0 1 2.016-.252q1.281 0 2.415.231 1.134.21 1.869.63l-.903 2.415q-.462-.294-1.386-.525a7.6 7.6 0 0 0-1.995-.252q-1.008 0-1.554.399-.525.399-.525 1.071 0 .63.483 1.05.504.42 1.239.777.756.357 1.617.735.882.378 1.617.924.756.525 1.239 1.323.504.777.504 1.953t-.4 2.037a3.7 3.7 0 0 1-1.091 1.407q-.694.567-1.701.84a8.2 8.2 0 0 1-2.184.273q-1.575 0-2.772-.294t-1.764-.588l.924-2.457q.231.126.588.273.378.147.84.273t.966.21q.525.084 1.07.084 1.282 0 1.954-.42.693-.441.693-1.323M43.283.8h2.877v14.7h-2.876zm16.132 2.562H55.13V15.5h-2.877V3.362h-4.305V.8h11.466zm7.84 8.19q0-.672-.504-1.092-.483-.42-1.239-.756a26 26 0 0 0-1.617-.714 9.6 9.6 0 0 1-1.617-.903 5 5 0 0 1-1.239-1.344q-.483-.798-.483-2.037 0-1.071.357-1.848a3.5 3.5 0 0 1 1.008-1.323q.672-.525 1.575-.777a7.5 7.5 0 0 1 2.016-.252q1.282 0 2.415.231 1.135.21 1.87.63l-.904 2.415q-.462-.294-1.386-.525a7.6 7.6 0 0 0-1.995-.252q-1.008 0-1.554.399-.525.399-.525 1.071 0 .63.483 1.05.505.42 1.24.777.755.357 1.616.735.882.378 1.617.924.756.525 1.24 1.323.503.777.503 1.953t-.399 2.037a3.7 3.7 0 0 1-1.092 1.407q-.693.567-1.7.84a8.2 8.2 0 0 1-2.185.273q-1.575 0-2.772-.294t-1.764-.588l.924-2.457q.231.126.588.273.378.147.84.273t.966.21q.525.084 1.071.084 1.281 0 1.953-.42.693-.441.693-1.323M72.05.8h8.715v2.562h-5.838v3.423h5.313v2.562h-5.313v3.591h5.943V15.5h-8.82zm10.972 0q.441-.063.987-.105a30 30 0 0 1 2.289-.084A28 28 0 0 1 87.305.59q1.953 0 3.339.546t2.247 1.533 1.26 2.352.399 3.003q0 1.491-.378 2.877a6.5 6.5 0 0 1-1.26 2.457q-.882 1.071-2.331 1.722-1.428.651-3.55.651-.335 0-.902-.021a38 38 0 0 1-1.155-.063q-.588-.021-1.134-.063a8 8 0 0 1-.82-.063zm4.515 2.352q-.462 0-.945.021a6 6 0 0 0-.693.063v9.849q.084.021.273.042.21 0 .44.021.232 0 .442.021h.315q1.218 0 2.016-.42a3.4 3.4 0 0 0 1.28-1.155 4.5 4.5 0 0 0 .673-1.638q.189-.945.189-1.932 0-.861-.168-1.722a4.2 4.2 0 0 0-.63-1.575 3.4 3.4 0 0 0-1.218-1.134q-.777-.441-1.974-.441m8.62 4.998q0-3.675 1.616-5.649Q99.39.506 102.392.506q1.575 0 2.751.546a5.2 5.2 0 0 1 1.953 1.554q.777 1.008 1.155 2.415t.378 3.129q0 3.675-1.638 5.67-1.617 1.974-4.599 1.974-1.596 0-2.772-.546a5.2 5.2 0 0 1-1.953-1.554q-.756-1.008-1.134-2.415t-.378-3.129m3.023 0q0 1.113.19 2.058.188.924.566 1.596.399.672 1.008 1.05t1.449.378q1.533 0 2.373-1.197t.84-3.885q0-1.071-.189-1.995a5.4 5.4 0 0 0-.546-1.617 2.8 2.8 0 0 0-.987-1.071q-.609-.399-1.491-.399-1.533 0-2.373 1.239-.84 1.218-.84 3.843m15.161-.315-1.155-2.31h-.105l.336 2.31V15.5h-2.73V.695h2.1l5.565 7.833 1.113 2.247h.105l-.336-2.247V.8h2.73v14.805h-2.1zm17.393 4.41h-4.515l-1.113 3.255h-2.877L128.52.695h2.121l5.292 14.805h-3.024zm-3.78-2.31h3.15l-1.092-3.276-.441-2.31h-.105l-.441 2.331z"/></svg>